<?xml version="1.0" standalone="no"?>
<!DOCTYPE svg PUBLIC "-//W3C//DTD SVG 20010904//EN"
 "http://www.w3.org/TR/2001/REC-SVG-20010904/DTD/svg10.dtd">
<svg version="1.0" xmlns="http://www.w3.org/2000/svg"
 width="512.000000pt" height="512.000000pt" viewBox="0 0 512.000000 512.000000"
 preserveAspectRatio="xMidYMid meet">
<metadata>
Created by potrace 1.11, written by Peter Selinger 2001-2013
</metadata>
<g transform="translate(0.000000,512.000000) scale(0.100000,-0.100000)"
fill="#000000" stroke="none">
<path d="M3053 5109 c-308 -51 -708 -493 -969 -1070 -36 -79 -69 -151 -73
-159 -4 -8 -26 -19 -47 -23 -381 -85 -1096 -366 -1429 -562 -323 -190 -490
-326 -524 -424 -32 -98 105 -327 326 -541 130 -127 166 -157 262 -222 107 -73
376 -203 463 -224 l28 -6 -25 55 c-13 31 -34 93 -45 138 -17 67 -19 84 -8 91
7 4 65 24 128 44 63 19 121 37 128 39 33 11 -15 -215 -71 -328 l-33 -67 38
-10 c21 -6 55 -14 76 -20 117 -30 256 -43 452 -43 226 0 273 5 680 79 369 66
504 67 672 4 70 -26 184 -108 212 -152 31 -49 28 -137 -8 -207 -110 -216 -456
-390 -912 -460 -274 -43 -488 -50 -901 -29 l-242 11 -37 56 c-92 139 -238 290
-423 437 -201 161 -329 216 -375 165 -28 -31 -30 -98 -6 -286 49 -397 49 -664
-1 -1090 -24 -203 -22 -252 13 -287 28 -28 71 -20 183 36 94 48 217 132 335
230 95 79 249 241 285 300 35 56 10 55 310 7 443 -70 762 -96 1210 -95 455 0
616 19 950 110 259 71 595 214 763 323 34 23 68 41 75 41 7 0 39 -19 72 -40
124 -83 260 -114 367 -84 65 19 68 259 4 527 l-14 59 43 91 c78 170 109 287
126 487 34 402 -76 805 -309 1135 -77 108 -266 296 -379 375 -228 160 -491
281 -794 364 l-55 15 -71 148 c-83 173 -131 299 -167 438 -35 137 -45 213 -54
401 -9 183 -17 206 -79 223 -43 12 -76 12 -150 0z m-493 -2758 c0 -49 -49
-223 -80 -288 -38 -77 -62 -88 -101 -45 -42 47 -123 321 -104 352 4 6 65 10
146 10 l139 0 0 -29z m-433 -33 c-8 -78 -54 -227 -85 -278 -35 -57 -66 -61
-99 -11 -28 41 -79 197 -89 269 l-6 51 33 5 c31 6 66 8 208 14 l44 2 -6 -52z
m-417 -47 c0 -118 -62 -340 -109 -393 -33 -37 -61 -32 -89 16 -44 74 -96 272
-90 346 l3 43 65 14 c74 15 164 30 198 32 20 1 22 -3 22 -58z"/>
</g>
</svg>
